<?xml version="1.0" encoding="UTF-8"?>
<svg id="Layer_2" data-name="Layer 2" xmlns="http://www.w3.org/2000/svg" viewBox="0 0 1069.6 456.28">
  <defs>
    <style>
      .cls-1 {
        fill: #231f20;
      }

      .cls-2 {
        fill: #f47621;
        fill-rule: evenodd;
      }

      .cls-3 {
        fill: #fff;
      }
    </style>
  </defs>
  <g id="Logos">
    <g>
      <g>
        <g>
          <path class="cls-2" d="M162.02,324.04c89.48,0,162.02-72.54,162.02-162.02S251.5,0,162.02,0,0,72.54,0,162.02s72.54,162.02,162.02,162.02Z"/>
          <path class="cls-3" d="M142.08,98.81l-49.48,19.89c-25.68,11.46-32.98,12.25-31.97,36.9v59.3c0,18.95,9.73,28.43,29.19,28.43h41.01c19.45,0,29.19-9.47,29.19-28.43v-102.96l-17.93-13.13ZM138.16,216.47c0,5-2.63,7.5-7.88,7.5h-39.93c-5.26,0-7.88-2.5-7.88-7.5v-64.39c0-4.99,2.48-9.69,7.88-11.48l38-16.54c7.24-2.65,9.8,1.6,9.8,6.59v85.82Z"/>
          <path class="cls-3" d="M262.32,110.57v19.16l-42.16-8.27s0,0,0,0v116.69c0,2.85-2.32,5.14-5.2,5.14h-13.19c-2.87,0-5.2-2.3-5.2-5.14v-121.98l-20.02-4.05.14-.23-27.64-17.48v-12.52l56.06,12.14,33.23-1.23,22.92,13.89-.88-.14c1.18.95,1.92,2.4,1.94,3.99Z"/>
        </g>
        <g>
          <path class="cls-1" d="M381,170.76c0-33.19,22.55-56.89,54.21-56.89s54.21,23.7,54.21,56.89-22.55,56.89-54.21,56.89c-32.21.05-54.21-23.7-54.21-56.89ZM468.8,170.62c0-22.57-13.36-38.26-33.64-38.26s-33.64,15.74-33.64,38.26,13.36,38.4,33.64,38.4c20.33.05,33.64-15.55,33.64-38.4Z"/>
          <path class="cls-1" d="M743.95,147.63c11.05,0,20.01,4.79,24.26,12.23h.55c-.14-1.47-.28-3.03-.28-6.4v-3.51h18.16v105.44h-54.62v-17.78h34.89v-16.98c0-3.51.14-4.93.42-6.54h-.55c-3.28,6.26-11.65,10.76-22,10.76-20.43,0-35.91-15.88-35.91-38.59.05-22.76,14.79-38.64,35.07-38.64ZM728.88,186.22c0,12.37,8.23,20.81,19.45,20.81s19.46-8.58,19.46-20.81-8.23-20.81-19.46-20.81-19.45,8.44-19.45,20.81Z"/>
          <path class="cls-1" d="M832.03,227.7c-23.25,0-39.42-16.88-39.42-40.01s16.31-40.01,39.14-40.01c21.58,0,36.05,16.73,36.05,40.01,0,2.04-.14,4.5-.55,6.4h-54.07c2.12,9.91,8.78,15.55,18.99,15.55,8.23,0,13.63-2.61,18.44-8.86l11.51,12.37c-7.53,10-17.61,14.55-30.08,14.55ZM813.18,181.1h35.17c-1.43-9.48-7.81-15.74-17.01-15.74-9.66.05-16.17,6.02-18.16,15.74Z"/>
          <path class="cls-1" d="M880,134.26h-26.66v-18.06h73.48v18.06h-26.66v91.11h-20.15v-91.11Z"/>
          <path class="cls-1" d="M951.21,227.7c-23.24,0-39.42-16.88-39.42-40.01s16.31-40.01,39.14-40.01c21.58,0,36.05,16.73,36.05,40.01,0,2.04-.14,4.5-.55,6.4h-54.07c2.13,9.91,8.78,15.55,18.99,15.55,8.23,0,13.63-2.61,18.44-8.86l11.51,12.37c-7.49,10-17.56,14.55-30.08,14.55ZM932.35,181.1h35.17c-1.43-9.48-7.81-15.74-17.01-15.74-9.66.05-16.17,6.02-18.16,15.74Z"/>
          <path class="cls-1" d="M1033.83,227.7c-23.24,0-39.42-16.88-39.42-40.01s16.31-40.01,39.14-40.01c21.58,0,36.05,16.73,36.05,40.01,0,2.04-.14,4.5-.55,6.4h-54.07c2.13,9.91,8.78,15.55,18.99,15.55,8.23,0,13.63-2.61,18.44-8.86l11.51,12.37c-7.48,10-17.56,14.55-30.08,14.55ZM1014.98,181.1h35.17c-1.43-9.48-7.81-15.74-17.01-15.74-9.66.05-16.17,6.02-18.16,15.74Z"/>
          <path class="cls-1" d="M499.4,225.52v-76.23h47.32c-.37.28-.69.71-.97,1.04-.32.38-.69.76-1.02,1.18-.32.28-.69.66-1.02,1-.37.38-.69.76-1.02,1.14-1.39,1.57-2.68,3.13-3.97,4.79-2.5,3.18-4.85,6.5-6.84,10.05l-.97,1.75h-12.2v55.28h-19.32Z"/>
          <path class="cls-1" d="M577.54,148.44c11.18,0,19.78,4.93,23.61,11.9h.55c-.14-1.14-.28-2.61-.28-6.68v-2.89h18.07v75.09h-18.07v-3.46c0-3.32.14-5.36.28-6.97h-.55c-4.25,7.82-13.26,12.75-24.45,12.75-20.93,0-35.63-16.4-35.63-39.87s15.53-39.87,36.46-39.87ZM600.69,188.02c0-12.89-8.32-21.9-19.92-21.9s-19.78,9.01-19.78,21.9,8.32,22.19,19.78,22.19,19.92-9.15,19.92-22.19Z"/>
          <path class="cls-1" d="M699.26,225.33h-19.83v-57.55h-14.32l-15.34,22.09v35.46h-19.82v-41.95l23.2-33.42h46.12v75.38Z"/>
        </g>
      </g>
      <g>
        <path class="cls-1" d="M37.87,424.23H14.38l-4.33,11.97H2.64l19.47-53.52h8.11l19.39,53.52h-7.42l-4.33-11.97ZM35.86,418.51l-9.74-27.19-9.74,27.19h19.47Z"/>
        <path class="cls-1" d="M138.47,395.15c2.58,1.36,4.61,3.41,6.1,6.14,1.49,2.73,2.24,6.05,2.24,9.96v24.95h-6.95v-23.94c0-4.22-1.04-7.45-3.13-9.69-2.09-2.24-4.91-3.36-8.46-3.36s-6.57,1.17-8.73,3.51c-2.16,2.34-3.25,5.73-3.25,10.16v23.32h-6.95v-23.94c0-4.22-1.04-7.45-3.13-9.69-2.09-2.24-4.91-3.36-8.46-3.36s-6.57,1.17-8.73,3.51c-2.16,2.34-3.25,5.73-3.25,10.16v23.32h-7.03v-42.32h7.03v6.1c1.39-2.21,3.26-3.91,5.6-5.1,2.34-1.18,4.93-1.78,7.77-1.78,3.55,0,6.7.8,9.43,2.39,2.73,1.6,4.76,3.94,6.1,7.03,1.18-2.99,3.14-5.3,5.87-6.95,2.73-1.65,5.77-2.47,9.12-2.47s6.23.68,8.81,2.05Z"/>
        <path class="cls-1" d="M196.73,417.67h-33.84c.26,4.17,1.69,7.43,4.29,9.77,2.6,2.34,5.76,3.51,9.47,3.51,3.04,0,5.58-.71,7.61-2.12,2.03-1.42,3.46-3.31,4.29-5.68h7.57c-1.13,4.07-3.4,7.38-6.8,9.92-3.4,2.55-7.62,3.82-12.67,3.82-4.02,0-7.61-.9-10.78-2.7-3.17-1.8-5.65-4.36-7.46-7.68-1.8-3.32-2.7-7.17-2.7-11.55s.88-8.21,2.63-11.51c1.75-3.29,4.21-5.83,7.38-7.61,3.17-1.78,6.81-2.66,10.93-2.66s7.57.88,10.66,2.63c3.09,1.75,5.47,4.16,7.15,7.22,1.67,3.06,2.51,6.53,2.51,10.39,0,1.34-.08,2.75-.23,4.25ZM187.93,405.04c-1.19-1.93-2.79-3.4-4.83-4.4-2.04-1-4.29-1.51-6.76-1.51-3.55,0-6.58,1.13-9.08,3.4-2.5,2.27-3.93,5.41-4.29,9.42h26.73c0-2.68-.59-4.98-1.78-6.91Z"/>
        <path class="cls-1" d="M265.97,395.15c2.58,1.36,4.61,3.41,6.1,6.14,1.49,2.73,2.24,6.05,2.24,9.96v24.95h-6.95v-23.94c0-4.22-1.04-7.45-3.13-9.69-2.09-2.24-4.91-3.36-8.46-3.36s-6.57,1.17-8.73,3.51c-2.16,2.34-3.25,5.73-3.25,10.16v23.32h-6.95v-23.94c0-4.22-1.04-7.45-3.13-9.69-2.09-2.24-4.91-3.36-8.46-3.36s-6.57,1.17-8.73,3.51c-2.16,2.34-3.25,5.73-3.25,10.16v23.32h-7.03v-42.32h7.03v6.1c1.39-2.21,3.26-3.91,5.6-5.1,2.34-1.18,4.93-1.78,7.77-1.78,3.55,0,6.7.8,9.43,2.39,2.73,1.6,4.76,3.94,6.1,7.03,1.18-2.99,3.14-5.3,5.87-6.95,2.73-1.65,5.77-2.47,9.12-2.47s6.23.68,8.81,2.05Z"/>
        <path class="cls-1" d="M299.19,395.58c2.78-1.6,5.95-2.39,9.5-2.39,3.81,0,7.24.9,10.28,2.7,3.04,1.8,5.43,4.34,7.19,7.61,1.75,3.27,2.63,7.07,2.63,11.39s-.88,8.08-2.63,11.43c-1.75,3.35-4.16,5.95-7.22,7.8-3.07,1.85-6.48,2.78-10.24,2.78s-6.86-.8-9.62-2.39c-2.76-1.6-4.83-3.63-6.22-6.1v7.8h-7.03v-57.15h7.03v22.71c1.44-2.52,3.55-4.58,6.34-6.18ZM319.67,406.54c-1.29-2.37-3.03-4.17-5.22-5.41-2.19-1.24-4.6-1.85-7.22-1.85s-4.96.63-7.15,1.89c-2.19,1.26-3.94,3.09-5.25,5.48-1.31,2.39-1.97,5.16-1.97,8.3s.66,5.99,1.97,8.38c1.31,2.39,3.06,4.22,5.25,5.48,2.19,1.26,4.57,1.89,7.15,1.89s5.03-.63,7.22-1.89c2.19-1.26,3.93-3.09,5.22-5.48,1.29-2.39,1.93-5.21,1.93-8.46s-.64-5.97-1.93-8.34Z"/>
        <path class="cls-1" d="M376.46,417.67h-33.84c.26,4.17,1.69,7.43,4.29,9.77,2.6,2.34,5.76,3.51,9.47,3.51,3.04,0,5.58-.71,7.61-2.12,2.03-1.42,3.46-3.31,4.29-5.68h7.57c-1.13,4.07-3.4,7.38-6.8,9.92-3.4,2.55-7.62,3.82-12.67,3.82-4.02,0-7.61-.9-10.78-2.7-3.17-1.8-5.65-4.36-7.46-7.68-1.8-3.32-2.7-7.17-2.7-11.55s.88-8.21,2.63-11.51c1.75-3.29,4.21-5.83,7.38-7.61,3.17-1.78,6.81-2.66,10.93-2.66s7.57.88,10.66,2.63c3.09,1.75,5.47,4.16,7.15,7.22,1.67,3.06,2.51,6.53,2.51,10.39,0,1.34-.08,2.75-.23,4.25ZM367.65,405.04c-1.19-1.93-2.79-3.4-4.83-4.4-2.04-1-4.29-1.51-6.76-1.51-3.55,0-6.58,1.13-9.08,3.4-2.5,2.27-3.93,5.41-4.29,9.42h26.73c0-2.68-.59-4.98-1.78-6.91Z"/>
        <path class="cls-1" d="M398.28,395.11c2.29-1.34,5.09-2.01,8.38-2.01v7.26h-1.85c-7.88,0-11.82,4.27-11.82,12.82v23.01h-7.03v-42.32h7.03v6.87c1.24-2.42,3-4.3,5.29-5.64Z"/>
        <path class="cls-1" d="M443.1,434.19c-3.22-1.8-5.74-4.36-7.57-7.68-1.83-3.32-2.74-7.17-2.74-11.55s.94-8.15,2.82-11.47c1.88-3.32,4.44-5.87,7.69-7.65,3.25-1.78,6.88-2.66,10.89-2.66s7.65.89,10.89,2.66c3.25,1.78,5.81,4.31,7.69,7.61,1.88,3.3,2.82,7.13,2.82,11.51s-.97,8.23-2.9,11.55c-1.93,3.32-4.55,5.88-7.84,7.68-3.3,1.8-6.95,2.7-10.97,2.7s-7.56-.9-10.78-2.7ZM460.99,428.94c2.21-1.18,4-2.96,5.37-5.33,1.36-2.37,2.05-5.25,2.05-8.65s-.67-6.28-2.01-8.65c-1.34-2.37-3.09-4.13-5.25-5.29-2.16-1.16-4.51-1.74-7.03-1.74s-4.93.58-7.07,1.74c-2.14,1.16-3.85,2.92-5.14,5.29-1.29,2.37-1.93,5.25-1.93,8.65s.63,6.36,1.89,8.73c1.26,2.37,2.95,4.13,5.06,5.29,2.11,1.16,4.43,1.74,6.95,1.74s4.89-.59,7.11-1.78Z"/>
        <path class="cls-1" d="M502.09,399.67h-8.89v36.53h-7.03v-36.53h-5.49v-5.79h5.49v-3.01c0-4.74,1.22-8.2,3.67-10.39,2.45-2.19,6.37-3.28,11.78-3.28v5.87c-3.09,0-5.27.61-6.53,1.81-1.26,1.21-1.89,3.21-1.89,5.99v3.01h8.89v5.79Z"/>
        <path class="cls-1" d="M559.27,436.2l-12.83-22.01h-8.5v22.01h-7.03v-53.83h17.39c4.07,0,7.51.7,10.32,2.09,2.81,1.39,4.91,3.27,6.3,5.64,1.39,2.37,2.09,5.07,2.09,8.11,0,3.71-1.07,6.98-3.21,9.81-2.14,2.83-5.34,4.71-9.62,5.64l13.52,22.55h-8.42ZM537.94,408.55h10.35c3.81,0,6.67-.94,8.58-2.82,1.91-1.88,2.86-4.39,2.86-7.53s-.94-5.66-2.82-7.41c-1.88-1.75-4.75-2.63-8.62-2.63h-10.35v20.39Z"/>
        <path class="cls-1" d="M616.29,417.67h-33.84c.26,4.17,1.69,7.43,4.29,9.77,2.6,2.34,5.76,3.51,9.47,3.51,3.04,0,5.58-.71,7.61-2.12,2.03-1.42,3.46-3.31,4.29-5.68h7.57c-1.13,4.07-3.4,7.38-6.8,9.92-3.4,2.55-7.62,3.82-12.67,3.82-4.02,0-7.61-.9-10.78-2.7-3.17-1.8-5.65-4.36-7.46-7.68-1.8-3.32-2.7-7.17-2.7-11.55s.88-8.21,2.63-11.51c1.75-3.29,4.21-5.83,7.38-7.61,3.17-1.78,6.81-2.66,10.93-2.66s7.57.88,10.66,2.63c3.09,1.75,5.47,4.16,7.15,7.22,1.67,3.06,2.51,6.53,2.51,10.39,0,1.34-.08,2.75-.23,4.25ZM607.48,405.04c-1.19-1.93-2.79-3.4-4.83-4.4-2.04-1-4.29-1.51-6.76-1.51-3.55,0-6.58,1.13-9.08,3.4-2.5,2.27-3.93,5.41-4.29,9.42h26.73c0-2.68-.59-4.98-1.78-6.91Z"/>
        <path class="cls-1" d="M625.8,403.49c1.75-3.27,4.16-5.8,7.22-7.61,3.06-1.8,6.48-2.7,10.24-2.7s6.93.8,9.66,2.39c2.73,1.6,4.76,3.6,6.1,6.02v-7.72h7.11v42.32h-7.11v-7.88c-1.39,2.47-3.46,4.52-6.22,6.14-2.76,1.62-5.96,2.43-9.62,2.43s-7.16-.93-10.2-2.78c-3.04-1.85-5.44-4.45-7.19-7.8-1.75-3.35-2.63-7.16-2.63-11.43s.88-8.12,2.63-11.39ZM657.09,406.62c-1.29-2.37-3.03-4.18-5.22-5.44-2.19-1.26-4.6-1.89-7.22-1.89s-5.02.62-7.19,1.85-3.89,3.04-5.18,5.41c-1.29,2.37-1.93,5.15-1.93,8.34s.64,6.06,1.93,8.46c1.29,2.39,3.01,4.22,5.18,5.48,2.16,1.26,4.56,1.89,7.19,1.89s5.03-.63,7.22-1.89c2.19-1.26,3.93-3.09,5.22-5.48,1.29-2.39,1.93-5.19,1.93-8.38s-.64-5.97-1.93-8.34Z"/>
        <path class="cls-1" d="M685.06,379.05v57.15h-7.03v-57.15h7.03Z"/>
        <path class="cls-1" d="M697.27,385.61c-.93-.93-1.39-2.06-1.39-3.4s.46-2.47,1.39-3.4,2.06-1.39,3.4-1.39,2.38.46,3.28,1.39c.9.93,1.35,2.06,1.35,3.4s-.45,2.47-1.35,3.4c-.9.93-2,1.39-3.28,1.39s-2.47-.46-3.4-1.39ZM704.07,393.88v42.32h-7.03v-42.32h7.03Z"/>
        <path class="cls-1" d="M723.73,434.19c-3.22-1.8-5.74-4.36-7.57-7.68-1.83-3.32-2.74-7.17-2.74-11.55s.94-8.15,2.82-11.47c1.88-3.32,4.44-5.87,7.69-7.65,3.25-1.78,6.88-2.66,10.89-2.66s7.65.89,10.89,2.66c3.25,1.78,5.81,4.31,7.69,7.61,1.88,3.3,2.82,7.13,2.82,11.51s-.97,8.23-2.9,11.55c-1.93,3.32-4.55,5.88-7.84,7.68-3.3,1.8-6.95,2.7-10.97,2.7s-7.56-.9-10.78-2.7ZM741.62,428.94c2.21-1.18,4-2.96,5.37-5.33,1.36-2.37,2.05-5.25,2.05-8.65s-.67-6.28-2.01-8.65c-1.34-2.37-3.09-4.13-5.25-5.29-2.16-1.16-4.51-1.74-7.03-1.74s-4.93.58-7.07,1.74c-2.14,1.16-3.85,2.92-5.14,5.29-1.29,2.37-1.93,5.25-1.93,8.65s.63,6.36,1.89,8.73c1.26,2.37,2.95,4.13,5.06,5.29,2.11,1.16,4.43,1.74,6.95,1.74s4.89-.59,7.11-1.78Z"/>
        <path class="cls-1" d="M798.64,397.78c3.19,3.12,4.79,7.61,4.79,13.48v24.95h-6.95v-23.94c0-4.22-1.06-7.45-3.17-9.69-2.11-2.24-5-3.36-8.65-3.36s-6.66,1.16-8.85,3.48c-2.19,2.32-3.28,5.69-3.28,10.12v23.4h-7.03v-42.32h7.03v6.02c1.39-2.16,3.28-3.83,5.68-5.02,2.4-1.18,5.03-1.78,7.92-1.78,5.15,0,9.32,1.56,12.52,4.67Z"/>
        <path class="cls-1" d="M876.37,397.97c-1.49-3.14-3.66-5.57-6.49-7.3-2.83-1.72-6.13-2.59-9.89-2.59s-7.15.86-10.16,2.59c-3.01,1.73-5.38,4.2-7.11,7.41-1.73,3.22-2.59,6.94-2.59,11.16s.86,7.93,2.59,11.12c1.73,3.19,4.09,5.65,7.11,7.38,3.01,1.73,6.4,2.59,10.16,2.59,5.25,0,9.58-1.57,12.98-4.71,3.4-3.14,5.38-7.39,5.95-12.74h-21.48v-5.72h28.98v5.41c-.41,4.43-1.8,8.48-4.17,12.16-2.37,3.68-5.49,6.59-9.35,8.73-3.86,2.14-8.17,3.21-12.9,3.21-5,0-9.56-1.17-13.68-3.51-4.12-2.34-7.38-5.6-9.77-9.77-2.4-4.17-3.59-8.88-3.59-14.13s1.2-9.98,3.59-14.17c2.4-4.2,5.65-7.46,9.77-9.81,4.12-2.34,8.68-3.51,13.68-3.51,5.72,0,10.78,1.42,15.18,4.25,4.4,2.83,7.61,6.82,9.62,11.97h-8.42Z"/>
        <path class="cls-1" d="M908.01,395.11c2.29-1.34,5.09-2.01,8.38-2.01v7.26h-1.85c-7.88,0-11.82,4.27-11.82,12.82v23.01h-7.03v-42.32h7.03v6.87c1.24-2.42,3-4.3,5.29-5.64Z"/>
        <path class="cls-1" d="M932.2,434.19c-3.22-1.8-5.74-4.36-7.57-7.68-1.83-3.32-2.74-7.17-2.74-11.55s.94-8.15,2.82-11.47c1.88-3.32,4.44-5.87,7.69-7.65,3.25-1.78,6.88-2.66,10.89-2.66s7.65.89,10.89,2.66c3.25,1.78,5.81,4.31,7.69,7.61,1.88,3.3,2.82,7.13,2.82,11.51s-.97,8.23-2.9,11.55c-1.93,3.32-4.55,5.88-7.84,7.68-3.3,1.8-6.95,2.7-10.97,2.7s-7.56-.9-10.78-2.7ZM950.08,428.94c2.21-1.18,4-2.96,5.37-5.33,1.36-2.37,2.05-5.25,2.05-8.65s-.67-6.28-2.01-8.65c-1.34-2.37-3.09-4.13-5.25-5.29-2.16-1.16-4.51-1.74-7.03-1.74s-4.93.58-7.07,1.74c-2.14,1.16-3.85,2.92-5.14,5.29-1.29,2.37-1.93,5.25-1.93,8.65s.63,6.36,1.89,8.73c1.26,2.37,2.95,4.13,5.06,5.29,2.11,1.16,4.43,1.74,6.95,1.74s4.89-.59,7.11-1.78Z"/>
        <path class="cls-1" d="M1011.51,393.88v42.32h-7.03v-6.26c-1.34,2.16-3.21,3.85-5.6,5.06-2.4,1.21-5.04,1.81-7.92,1.81-3.3,0-6.26-.68-8.89-2.05-2.63-1.36-4.7-3.41-6.22-6.14-1.52-2.73-2.28-6.05-2.28-9.96v-24.79h6.95v23.86c0,4.17,1.06,7.38,3.17,9.62,2.11,2.24,5,3.36,8.65,3.36s6.72-1.16,8.89-3.48,3.25-5.69,3.25-10.12v-23.25h7.03Z"/>
        <path class="cls-1" d="M1036.66,395.62c2.75-1.62,5.96-2.43,9.62-2.43s7.17.9,10.24,2.7c3.06,1.8,5.47,4.34,7.22,7.61,1.75,3.27,2.63,7.07,2.63,11.39s-.88,8.08-2.63,11.43c-1.75,3.35-4.16,5.95-7.22,7.8-3.07,1.85-6.48,2.78-10.24,2.78s-6.79-.81-9.54-2.43c-2.76-1.62-4.86-3.64-6.3-6.06v27.88h-7.03v-62.4h7.03v7.8c1.39-2.42,3.46-4.44,6.22-6.06ZM1057.25,406.54c-1.29-2.37-3.03-4.17-5.22-5.41-2.19-1.24-4.6-1.85-7.22-1.85s-4.96.63-7.15,1.89c-2.19,1.26-3.94,3.09-5.25,5.48s-1.97,5.16-1.97,8.3.66,5.99,1.97,8.38,3.06,4.22,5.25,5.48c2.19,1.26,4.57,1.89,7.15,1.89s5.03-.63,7.22-1.89c2.19-1.26,3.93-3.09,5.22-5.48,1.29-2.39,1.93-5.21,1.93-8.46s-.65-5.97-1.93-8.34Z"/>
      </g>
    </g>
  </g>
</svg>